<svg width="190" height="51" viewBox="0 0 190 51" fill="none" xmlns="http://www.w3.org/2000/svg">
<path d="M23.72 30.224C23.576 20.24 9.08 23.264 9.08 18.992C9.08 17.696 10.136 16.928 12.056 16.928C14.36 16.928 15.752 18.128 15.992 19.952H23.576C23.048 14.672 19.208 10.832 12.296 10.832C5.288 10.832 1.4 14.576 1.4 19.136C1.4 28.976 15.992 25.856 15.992 30.176C15.992 31.376 14.888 32.336 12.776 32.336C10.52 32.336 8.84 31.088 8.648 29.216H0.536C0.92 34.4 5.72 38.384 12.872 38.384C19.592 38.384 23.72 34.88 23.72 30.224ZM26.9176 28.688C26.9176 35.648 30.8056 38 36.3736 38H40.5496V31.04H37.6216C35.7976 31.04 35.1256 30.368 35.1256 28.784V18.032H40.5016V11.216H35.1256V4.688H26.9176V11.216H23.6536V18.032H26.9176V28.688ZM53.8096 17.408C56.5456 17.408 58.8496 19.088 58.8496 22.016H48.5776C49.0576 19.04 51.1216 17.408 53.8096 17.408ZM66.6256 29.12H57.8896C57.2176 30.56 55.9216 31.712 53.6176 31.712C50.9776 31.712 48.8176 30.08 48.5296 26.576H67.1056C67.2016 25.76 67.2496 24.944 67.2496 24.176C67.2496 16.016 61.7296 10.832 53.9056 10.832C45.9376 10.832 40.3696 16.112 40.3696 24.608C40.3696 33.104 46.0336 38.384 53.9056 38.384C60.5776 38.384 65.3296 34.352 66.6256 29.12ZM76.6677 15.008V11.216H68.4597V50.768H76.6677V34.256C78.1557 36.512 80.9878 38.384 84.9238 38.384C91.4998 38.384 96.7318 33.008 96.7318 24.56C96.7318 16.112 91.4998 10.832 84.9238 10.832C80.9878 10.832 78.1557 12.656 76.6677 15.008ZM88.3798 24.56C88.3798 28.832 85.5958 31.232 82.4757 31.232C79.4038 31.232 76.6197 28.88 76.6197 24.608C76.6197 20.336 79.4038 17.984 82.4757 17.984C85.5958 17.984 88.3798 20.288 88.3798 24.56ZM98.7339 38H106.942V18.032H111.358V11.216H106.942V10.976C106.942 8.144 108.046 7.184 111.214 7.376V0.415998C103.054 -0.0160027 98.7339 3.44 98.7339 10.448V11.216H95.7579V18.032H98.7339V38ZM112.095 38H120.303V2.48H112.095V38ZM149.339 24.608C149.339 16.112 143.291 10.832 135.419 10.832C127.595 10.832 121.499 16.112 121.499 24.608C121.499 33.104 127.451 38.384 135.323 38.384C143.195 38.384 149.339 33.104 149.339 24.608ZM129.851 24.608C129.851 20.048 132.443 17.936 135.419 17.936C138.299 17.936 140.987 20.048 140.987 24.608C140.987 29.12 138.251 31.28 135.323 31.28C132.347 31.28 129.851 29.12 129.851 24.608ZM155.086 38H164.11L168.478 20.624L172.702 38H181.774L189.022 11.216H181.294L177.55 30.272L172.99 11.216H164.302L159.79 30.368L155.998 11.216H147.79L155.086 38Z" fill="#090909"/>
</svg>
