<svg width="188" height="39" viewBox="0 0 188 39" fill="none" xmlns="http://www.w3.org/2000/svg">
<path d="M19.9641 4.64002C19.9921 4.75202 20.0061 4.87802 20.0061 5.01802C20.0061 5.13002 19.9641 5.22802 19.8801 5.31203C19.8241 5.36802 19.7541 5.41002 19.6701 5.43802C19.5861 5.46602 19.5301 5.49402 19.5021 5.52202C18.8861 5.71802 18.3821 5.81602 17.9901 5.81602C17.7101 5.81602 17.3881 5.74602 17.0241 5.60602C16.7441 5.35402 16.4081 5.17202 16.0161 5.06002C15.6241 4.94802 14.8121 4.85002 13.5801 4.76602C12.7681 4.85002 12.0541 4.89202 11.4381 4.89202C11.2421 5.92803 10.9201 6.85203 10.4721 7.66402C10.3601 8.19602 10.2061 8.67202 10.0101 9.09202C9.81413 9.65202 9.73013 9.97402 9.75813 10.058C9.67413 10.17 9.40813 10.884 8.96013 12.2C8.51213 13.488 8.09213 14.748 7.70013 15.98C7.42013 16.848 7.21013 17.478 7.07013 17.87C6.93013 18.15 6.74813 18.598 6.52413 19.214C6.32813 19.802 6.18813 20.222 6.10413 20.474L5.05413 23.372C4.83013 23.792 4.55013 24.464 4.21413 25.388C3.90613 26.284 3.65413 27.096 3.45813 27.824L3.03813 29.294C2.89813 29.798 2.77213 30.176 2.66013 30.428C2.57613 30.68 2.50613 30.82 2.45013 30.848C2.39413 30.876 2.25413 30.876 2.03013 30.848C1.80613 30.848 1.55413 30.666 1.27413 30.302C1.02213 29.966 0.896129 29.63 0.896129 29.294C0.896129 28.678 1.10613 27.642 1.52613 26.186C1.97413 24.73 2.39413 23.568 2.78613 22.7C2.89813 22.196 2.99613 21.79 3.08013 21.482C3.19213 21.174 3.26213 20.95 3.29013 20.81C3.37413 20.698 3.50013 20.404 3.66813 19.928C3.86413 19.424 4.01813 18.962 4.13013 18.542C4.21413 18.038 5.08213 15.224 6.73413 10.1L7.02813 9.21802C7.28013 8.79802 7.51813 8.26602 7.74213 7.62202C7.96613 7.48202 8.07813 7.18802 8.07813 6.74002C8.07813 6.65602 8.12013 6.54402 8.20413 6.40402C8.31613 6.26402 8.37213 6.16602 8.37213 6.11002C8.42813 6.05402 8.48413 5.92802 8.54013 5.73202C8.62413 5.50802 8.72213 5.34002 8.83413 5.22802V5.18602L8.16213 5.22802L6.10413 5.43802L5.18013 5.52202C3.55613 5.66202 2.61813 5.76002 2.36613 5.81602C1.52613 5.87202 0.924129 5.83003 0.560129 5.69003C0.224129 5.55003 0.112129 5.27002 0.224129 4.85002C0.308129 4.51402 0.476129 4.26202 0.728129 4.09402C1.00813 3.92602 1.42813 3.80002 1.98813 3.71602C2.24013 3.66002 2.73013 3.57602 3.45813 3.46402L4.59213 3.25402L6.02013 3.08602C7.64413 2.83402 9.36613 2.66602 11.1861 2.58202C11.9421 2.55402 12.5721 2.52602 13.0761 2.49802C13.6081 2.44202 13.9581 2.40002 14.1261 2.37202C14.5181 2.40002 15.1481 2.47002 16.0161 2.58202C16.9121 2.69402 17.5561 2.82002 17.9481 2.96002C18.5641 3.10002 19.0121 3.29602 19.2921 3.54802C19.6001 3.80002 19.8241 4.16402 19.9641 4.64002Z" fill="white"/>
<path d="M19.425 27.53C18.725 28.146 17.885 28.454 16.905 28.454C16.205 28.454 15.533 28.286 14.889 27.95C14.273 27.614 13.755 27.152 13.335 26.564C12.971 26.116 12.705 25.612 12.537 25.052C12.369 24.492 12.285 23.806 12.285 22.994C12.285 22.714 12.313 22.154 12.369 21.314C12.453 20.278 12.789 19.2 13.377 18.08C13.993 16.96 14.749 15.966 15.645 15.098C16.541 14.202 17.423 13.586 18.291 13.25C18.739 12.97 19.145 12.83 19.509 12.83C19.705 12.83 19.901 12.844 20.097 12.872C20.293 12.9 20.503 12.928 20.727 12.956C21.343 13.04 21.805 13.166 22.113 13.334C22.449 13.474 22.729 13.698 22.953 14.006C23.653 14.706 24.003 15.518 24.003 16.442C23.891 17.114 23.457 17.884 22.701 18.752C21.945 19.62 21.035 20.32 19.971 20.852C19.467 21.02 18.893 21.104 18.249 21.104C17.381 21.104 16.681 20.922 16.149 20.558C15.897 20.474 15.701 20.432 15.561 20.432C15.309 20.432 15.113 20.6 14.973 20.936C14.861 21.272 14.749 21.888 14.637 22.784C14.609 22.98 14.595 23.26 14.595 23.624C14.595 25.052 15.071 25.836 16.023 25.976C16.667 26.116 17.129 26.186 17.409 26.186C17.745 26.186 18.123 26.074 18.543 25.85L19.341 25.388C19.509 25.304 19.663 25.192 19.803 25.052C19.943 24.912 20.069 24.786 20.181 24.674C20.237 24.618 20.321 24.534 20.433 24.422C20.545 24.282 20.643 24.198 20.727 24.17C20.839 24.114 20.937 24.086 21.021 24.086C21.133 24.086 21.259 24.156 21.399 24.296C21.539 24.408 21.651 24.492 21.735 24.548C21.987 24.548 22.043 24.73 21.903 25.094C21.763 25.43 21.455 25.836 20.979 26.312C20.531 26.76 20.013 27.166 19.425 27.53ZM19.383 18.626C19.859 18.43 20.335 18.08 20.811 17.576C21.315 17.072 21.567 16.652 21.567 16.316C21.567 15.98 21.441 15.7 21.189 15.476C20.937 15.252 20.587 15.14 20.139 15.14C19.803 15.14 19.551 15.168 19.383 15.224C18.991 15.336 18.529 15.644 17.997 16.148C17.465 16.624 17.003 17.114 16.611 17.618C16.219 18.122 16.065 18.416 16.149 18.5C16.289 18.752 16.835 18.878 17.787 18.878C18.431 18.878 18.963 18.794 19.383 18.626Z" fill="white"/>
<path d="M28.6312 27.782C28.3512 27.838 28.0992 27.866 27.8752 27.866C27.5112 27.866 27.1752 27.838 26.8672 27.782C26.5592 27.698 26.4052 27.6 26.4052 27.488C26.4052 27.404 26.3912 27.348 26.3632 27.32C26.3352 27.292 26.2792 27.278 26.1952 27.278C26.1672 27.25 26.0832 27.18 25.9432 27.068C25.8032 26.956 25.6352 26.858 25.4392 26.774C25.1872 26.382 25.0612 25.962 25.0612 25.514C25.0612 25.038 25.1872 24.296 25.4392 23.288C25.5232 22.392 25.9432 21.272 26.6992 19.928C27.4552 18.584 28.3372 17.31 29.3452 16.106C30.3812 14.902 31.3052 14.062 32.1172 13.586C32.5372 13.166 33.0692 12.956 33.7132 12.956C34.2172 12.956 34.6932 13.082 35.1412 13.334C35.5332 13.558 35.9392 13.936 36.3592 14.468C36.8072 15 37.1572 15.546 37.4092 16.106C37.5212 16.526 37.5772 16.932 37.5772 17.324C37.5772 17.744 37.5212 18.402 37.4092 19.298C37.2692 19.802 37.1432 20.418 37.0312 21.146C36.9472 21.874 36.9052 22.504 36.9052 23.036C36.8492 23.428 36.8772 23.75 36.9892 24.002C37.1012 24.226 37.2552 24.338 37.4512 24.338C37.5912 24.338 37.7452 24.296 37.9132 24.212C38.1932 24.072 38.5012 24.002 38.8372 24.002C39.1452 24.002 39.3972 24.086 39.5932 24.254C39.7892 24.422 39.8872 24.674 39.8872 25.01C39.8872 25.514 39.5372 26.018 38.8372 26.522C38.1652 27.026 37.5212 27.278 36.9052 27.278C36.4852 27.278 36.0932 26.956 35.7292 26.312C35.3932 25.64 35.0572 24.786 34.7212 23.75L34.4692 22.784L32.6632 24.506L31.6972 25.472C31.2492 25.92 30.9972 26.186 30.9412 26.27C30.6332 26.802 29.8632 27.306 28.6312 27.782ZM28.7572 25.304C29.4292 24.912 30.2552 24.226 31.2352 23.246C32.2152 22.266 33.0272 21.328 33.6712 20.432C34.5392 19.284 35.0852 18.15 35.3092 17.03C35.1972 16.694 35.0152 16.358 34.7632 16.022C34.5112 15.686 34.2872 15.504 34.0912 15.476C33.5312 15.476 32.9432 15.798 32.3272 16.442C31.7112 17.086 30.9832 17.982 30.1432 19.13L28.7572 21.188C28.5892 21.412 28.2952 22.014 27.8752 22.994C27.4552 23.946 27.2452 24.52 27.2452 24.716C27.2452 25.332 27.4272 25.64 27.7912 25.64C28.0712 25.64 28.3932 25.528 28.7572 25.304Z" fill="white"/>
<path d="M60.2306 27.236C59.8386 27.096 59.4606 26.76 59.0966 26.228C58.7606 25.668 58.5926 24.772 58.5926 23.54L58.6346 21.608C58.6346 21.272 58.6066 21.034 58.5506 20.894C58.5226 20.754 58.4526 20.684 58.3406 20.684C57.9766 20.684 57.1926 21.16 55.9886 22.112C54.8126 23.064 53.6226 24.198 52.4186 25.514C52.2786 25.654 52.0826 25.864 51.8306 26.144C51.6066 26.396 51.3966 26.592 51.2006 26.732C51.0046 26.844 50.8226 26.9 50.6546 26.9C50.4026 26.9 50.1646 26.802 49.9406 26.606L49.4786 26.228C49.2826 26.06 49.1846 25.864 49.1846 25.64L49.2686 25.262L50.2346 22.49C50.8506 21.062 51.2146 20.166 51.3266 19.802C51.4386 19.41 51.4246 19.228 51.2846 19.256C51.0326 19.284 50.6826 19.424 50.2346 19.676C49.7866 19.9 49.5066 20.124 49.3946 20.348C49.3386 20.348 49.1566 20.502 48.8486 20.81C48.5406 21.09 48.2746 21.3 48.0506 21.44C47.7986 21.804 47.1826 22.462 46.2026 23.414L45.1946 24.38C44.7746 24.716 44.1866 25.402 43.4306 26.438C43.0386 26.942 42.8146 27.194 42.7586 27.194C41.8906 27.194 41.3446 26.774 41.1206 25.934C41.0086 25.738 40.9526 25.472 40.9526 25.136C40.9526 24.688 41.1206 23.764 41.4566 22.364C41.7086 21.412 41.8486 20.824 41.8766 20.6L42.0866 19.76C42.1426 19.396 42.2686 18.962 42.4646 18.458C42.6606 17.954 42.9966 17.156 43.4726 16.064C43.7526 15.28 43.8926 14.692 43.8926 14.3C43.8926 13.936 44.0186 13.656 44.2706 13.46C44.5226 13.236 44.8026 13.124 45.1106 13.124C45.5026 13.124 45.8386 13.278 46.1186 13.586C46.3986 13.894 46.5386 14.3 46.5386 14.804C46.5386 15.28 46.4266 15.77 46.2026 16.274L45.7406 17.408C45.5166 17.856 45.2226 18.584 44.8586 19.592C44.5226 20.572 44.3546 21.118 44.3546 21.23C44.3826 21.314 44.4806 21.3 44.6486 21.188C44.8166 21.048 45.0126 20.88 45.2366 20.684C45.4886 20.432 45.7826 20.18 46.1186 19.928C46.9586 19.144 47.9526 18.388 49.1006 17.66C50.2766 16.932 51.1726 16.47 51.7886 16.274C52.1526 16.274 52.4186 16.33 52.5866 16.442C52.7826 16.526 52.9926 16.694 53.2166 16.946C53.4406 17.17 53.6086 17.338 53.7206 17.45C53.9726 17.702 54.0986 18.066 54.0986 18.542C54.0986 18.682 54.0706 18.864 54.0146 19.088C53.9026 19.48 53.7486 19.956 53.5526 20.516C53.3846 21.076 53.2586 21.482 53.1746 21.734C53.3706 21.566 53.7206 21.272 54.2246 20.852C54.7286 20.432 55.1906 20.04 55.6106 19.676C57.0106 18.584 58.1166 18.038 58.9286 18.038C59.5166 18.038 60.0206 18.346 60.4407 18.962C60.6926 19.214 60.8466 19.48 60.9026 19.76C60.9586 20.012 60.9866 20.362 60.9866 20.81C60.9866 21.258 60.9866 21.608 60.9866 21.86C61.0146 22.056 61.0286 22.392 61.0286 22.868C61.0566 23.092 61.0846 23.526 61.1126 24.17C61.1686 24.814 61.2386 25.178 61.3226 25.262C61.4626 25.43 61.9386 25.584 62.7506 25.724C63.2547 25.808 63.5066 26.032 63.5066 26.396C63.5066 26.648 63.3246 26.9 62.9606 27.152C62.5966 27.376 62.1486 27.488 61.6166 27.488C61.1126 27.488 60.6506 27.404 60.2306 27.236Z" fill="white"/>
<path d="M75.4245 31.142C75.1725 31.03 74.8785 30.806 74.5425 30.47C73.9265 30.078 73.4645 29.63 73.1565 29.126C72.8485 28.622 72.6805 27.936 72.6525 27.068C72.6525 26.844 72.8345 26.536 73.1985 26.144C73.5905 25.724 74.0105 25.514 74.4585 25.514C74.7105 25.514 74.9625 25.598 75.2145 25.766C74.9625 26.578 74.8365 27.124 74.8365 27.404C74.8365 27.768 74.9625 28.062 75.2145 28.286C75.4945 28.482 75.9705 28.65 76.6425 28.79C77.0345 28.874 77.3985 28.916 77.7345 28.916C78.1825 28.916 78.7985 28.846 79.5825 28.706C80.3665 28.65 80.9685 28.594 81.3885 28.538C81.8085 28.454 82.1165 28.328 82.3125 28.16C83.1245 27.824 83.8525 27.432 84.4965 26.984C85.1405 26.508 85.5745 26.032 85.7985 25.556C86.0785 25.192 86.2465 24.898 86.3025 24.674C86.3585 24.45 86.3865 24.184 86.3865 23.876C86.3865 23.568 86.3865 23.344 86.3865 23.204C86.3585 22.308 86.2885 21.692 86.1765 21.356C86.0645 20.992 85.7005 20.166 85.0845 18.878C85.0845 18.71 84.8185 18.332 84.2865 17.744C83.7545 17.128 83.4045 16.722 83.2365 16.526C82.8725 15.77 82.5645 15.182 82.3125 14.762C82.0885 14.342 81.8085 14.02 81.4725 13.796C81.3885 13.684 81.2765 13.446 81.1365 13.082C80.9965 12.718 80.8985 12.522 80.8425 12.494C80.8145 12.466 80.7725 12.396 80.7165 12.284C80.6605 12.144 80.5905 11.976 80.5065 11.78C80.2825 11.276 80.1705 10.744 80.1705 10.184C80.1705 9.40002 80.3385 8.58802 80.6745 7.74802C81.0385 6.88002 81.5565 6.06803 82.2285 5.31203C82.5365 4.78003 83.0965 4.13602 83.9085 3.38002C84.7485 2.59602 85.2525 2.20402 85.4205 2.20402C85.4765 2.17602 85.5885 2.13402 85.7565 2.07802C85.9525 1.99402 86.1625 1.86802 86.3865 1.70002C86.6385 1.64402 86.9885 1.53202 87.4365 1.36402C87.8845 1.16802 88.2625 1.07002 88.5705 1.07002C88.9905 0.930024 89.3265 0.832024 89.5785 0.776023C89.8585 0.692024 90.1385 0.650024 90.4185 0.650024L91.6365 0.734023C93.0365 1.09802 93.9045 1.82602 94.2405 2.91802L94.5345 4.72402L92.7705 6.02602C92.4345 6.13802 92.0145 6.19402 91.5105 6.19402C91.1745 6.19402 90.8805 6.18002 90.6285 6.15202C90.3765 6.12402 90.2085 6.09603 90.1245 6.06803C89.9845 6.06803 89.9145 5.99802 89.9145 5.85802C89.9145 5.77402 89.9425 5.70402 89.9985 5.64802C90.0825 5.59202 90.1665 5.56402 90.2505 5.56402C90.3345 5.48002 90.4745 5.34002 90.6705 5.14402C90.8665 4.92002 91.0625 4.71002 91.2585 4.51402C91.4545 4.20602 91.5525 3.95402 91.5525 3.75802C91.5525 3.61802 91.4965 3.53402 91.3845 3.50602C91.3005 3.45002 91.1325 3.42202 90.8805 3.42202L89.7885 3.50602C88.7805 3.56202 87.8285 3.82802 86.9325 4.30402C86.0365 4.75202 85.2945 5.41002 84.7065 6.27802C84.0345 6.86602 83.5305 7.48202 83.1945 8.12602C82.8585 8.77002 82.6905 9.34402 82.6905 9.84802C82.8305 10.52 83.0685 11.164 83.4045 11.78L85.7985 15.098C86.4425 15.91 86.7645 16.372 86.7645 16.484V16.694C86.8205 16.694 87.0445 17.072 87.4365 17.828C87.8285 18.584 88.0245 19.032 88.0245 19.172L88.4025 20.054C88.5425 20.194 88.6825 20.782 88.8225 21.818C88.9625 22.854 89.0325 23.652 89.0325 24.212C89.0045 24.688 88.8225 25.22 88.4865 25.808C88.1785 26.396 87.7865 26.942 87.3105 27.446C86.7225 28.062 85.8685 28.748 84.7485 29.504C83.6285 30.26 82.6625 30.736 81.8505 30.932C81.3745 31.1 80.7445 31.24 79.9605 31.352C79.2045 31.464 78.4485 31.52 77.6925 31.52C76.4325 31.52 75.6765 31.394 75.4245 31.142Z" fill="white"/>
<path d="M98.7483 28.916C98.3563 28.804 98.0343 28.678 97.7823 28.538C97.5303 28.398 97.1943 28.132 96.7743 27.74C96.2703 27.068 95.9343 26.452 95.7663 25.892C95.6263 25.304 95.5563 24.38 95.5563 23.12C95.5563 22.448 95.9343 20.6 96.6903 17.576C96.6343 17.772 96.7323 17.366 96.9843 16.358C97.0683 16.05 96.9563 15.854 96.6483 15.77C96.3403 15.686 95.9063 15.644 95.3463 15.644C94.8703 15.644 94.5903 15.616 94.5063 15.56C94.4223 15.532 94.3663 15.49 94.3383 15.434C94.3383 15.378 94.3383 15.336 94.3383 15.308C94.3383 15.168 94.2823 15 94.1703 14.804C94.1423 14.776 94.1283 14.734 94.1283 14.678C94.1283 14.538 94.1983 14.384 94.3383 14.216C94.5063 14.048 94.7023 13.95 94.9263 13.922C95.0663 13.894 95.3883 13.852 95.8923 13.796C96.3963 13.74 96.8723 13.628 97.3203 13.46C97.7683 13.292 98.1183 13.054 98.3703 12.746C98.7343 11.822 99.1963 10.786 99.7563 9.63802C100.316 8.46202 100.694 7.76202 100.89 7.53802C101.338 7.31402 101.646 7.20202 101.814 7.20202C101.982 7.20202 102.122 7.25802 102.234 7.37002C102.346 7.48202 102.5 7.67802 102.696 7.95802C102.724 8.01402 102.794 8.11202 102.906 8.25202C103.018 8.39202 103.074 8.53202 103.074 8.67202C103.074 8.89602 102.962 9.23203 102.738 9.68003C102.542 10.128 102.136 10.912 101.52 12.032L100.974 13.082C101.058 13.11 101.254 13.124 101.562 13.124C101.87 13.124 102.122 13.11 102.318 13.082C102.934 12.97 103.508 12.914 104.04 12.914C104.32 12.914 104.516 12.928 104.628 12.956C105.272 12.956 105.734 13.082 106.014 13.334C106.322 13.558 106.504 13.95 106.56 14.51C106.616 14.818 106.56 15 106.392 15.056C106.224 15.112 105.748 15.14 104.964 15.14C101.716 15.28 100.078 15.406 100.05 15.518C99.9383 15.602 99.7283 16.092 99.4203 16.988C99.1123 17.884 98.8463 18.738 98.6223 19.55C98.2583 21.23 98.0763 22.714 98.0763 24.002C98.0763 25.178 98.2443 25.962 98.5803 26.354C98.7203 26.494 98.9863 26.564 99.3783 26.564C99.7703 26.564 100.19 26.494 100.638 26.354C101.114 26.186 101.506 25.976 101.814 25.724C102.318 25.304 102.738 25.094 103.074 25.094C103.242 25.094 103.368 25.15 103.452 25.262C103.564 25.346 103.62 25.458 103.62 25.598C103.62 25.906 103.452 26.298 103.116 26.774C102.696 27.418 102.136 27.95 101.436 28.37C100.736 28.79 100.064 29 99.4203 29C99.1123 29 98.8883 28.972 98.7483 28.916Z" fill="white"/>
<path d="M109.713 27.992C108.817 27.628 108.187 27.166 107.823 26.606C107.459 26.018 107.277 25.206 107.277 24.17C107.277 23.666 107.319 23.078 107.403 22.406L107.487 20.894C107.487 20.642 107.459 20.446 107.403 20.306C107.347 20.166 107.221 20.012 107.025 19.844C106.969 19.788 106.829 19.648 106.605 19.424C106.381 19.2 106.283 19.018 106.311 18.878L106.269 18.668C106.269 18.472 106.297 18.29 106.353 18.122C106.437 17.954 106.521 17.87 106.605 17.87C106.689 17.87 106.801 17.856 106.941 17.828C107.081 17.772 107.207 17.758 107.319 17.786C107.711 17.786 107.907 17.87 107.907 18.038C108.019 18.262 108.201 18.29 108.453 18.122C108.733 17.926 108.999 17.562 109.251 17.03C109.643 16.414 110.217 15.77 110.973 15.098C111.757 14.398 112.401 13.908 112.905 13.628C113.101 13.516 113.423 13.418 113.871 13.334C114.319 13.222 114.711 13.166 115.047 13.166C115.551 13.166 115.985 13.278 116.349 13.502C116.741 13.726 117.133 14.048 117.525 14.468C118.057 14.86 118.323 15.476 118.323 16.316C118.323 16.904 118.183 17.506 117.903 18.122C117.791 18.542 117.343 19.074 116.559 19.718C115.803 20.362 115.103 20.81 114.459 21.062C113.675 21.258 112.779 21.356 111.771 21.356C111.099 21.356 110.665 21.3 110.469 21.188C110.133 20.992 109.895 21.748 109.755 23.456C109.727 23.652 109.713 23.918 109.713 24.254C109.713 24.73 109.783 25.108 109.923 25.388C109.951 25.416 110.049 25.528 110.217 25.724C110.385 25.892 110.595 26.046 110.847 26.186C111.099 26.298 111.365 26.354 111.645 26.354C111.897 26.354 112.093 26.326 112.233 26.27C112.541 26.186 112.835 26.032 113.115 25.808C113.395 25.556 113.787 25.178 114.291 24.674C114.739 24.226 115.061 23.918 115.257 23.75C115.397 23.498 115.677 23.372 116.097 23.372C116.209 23.372 116.405 23.4 116.685 23.456C116.937 23.652 117.063 23.862 117.063 24.086C117.063 24.31 116.923 24.73 116.643 25.346C116.503 25.626 116.153 26.018 115.593 26.522C115.061 26.998 114.585 27.376 114.165 27.656C113.297 28.132 112.429 28.37 111.561 28.37C111.029 28.37 110.413 28.244 109.713 27.992ZM112.191 19.466C112.471 19.41 112.877 19.34 113.409 19.256C113.941 19.172 114.375 18.99 114.711 18.71C115.075 18.402 115.495 17.884 115.971 17.156C116.055 16.932 116.097 16.708 116.097 16.484C116.097 16.064 116.013 15.77 115.845 15.602C115.649 15.406 115.425 15.308 115.173 15.308C114.781 15.308 114.375 15.476 113.955 15.812C113.675 15.896 113.255 16.204 112.695 16.736C112.163 17.268 111.701 17.8 111.309 18.332C110.917 18.836 110.791 19.13 110.931 19.214C110.875 19.298 111.015 19.368 111.351 19.424C111.687 19.452 111.967 19.466 112.191 19.466Z" fill="white"/>
<path d="M117.953 38.366C117.645 38.254 117.337 38.002 117.029 37.61C116.721 37.246 116.567 36.938 116.567 36.686C116.567 36.266 116.847 34.88 117.407 32.528C117.967 30.204 118.513 28.314 119.045 26.858C119.073 26.746 119.255 26.284 119.591 25.472C119.927 24.66 120.249 23.68 120.557 22.532C120.781 21.72 121.369 20.138 122.321 17.786L123.539 14.762L124.505 12.116C124.589 11.892 124.729 11.696 124.925 11.528C125.149 11.332 125.345 11.206 125.513 11.15C125.569 11.122 125.667 11.108 125.807 11.108C126.199 11.108 126.535 11.332 126.815 11.78C126.899 11.948 126.941 12.116 126.941 12.284C126.941 12.564 126.773 13.11 126.437 13.922L126.143 14.762L127.655 14.426C128.047 14.426 128.369 14.44 128.621 14.468C129.629 14.468 130.259 14.496 130.511 14.552C131.127 14.58 131.561 14.692 131.813 14.888C132.093 15.084 132.359 15.392 132.611 15.812C133.115 16.288 133.395 16.708 133.451 17.072C133.507 17.408 133.535 17.674 133.535 17.87C133.535 18.766 133.269 19.69 132.737 20.642C132.205 21.566 131.575 22.266 130.847 22.742C130.567 22.854 130.329 22.966 130.133 23.078C129.937 23.19 129.811 23.26 129.755 23.288C129.699 23.512 129.055 23.876 127.823 24.38C126.619 24.856 125.625 25.15 124.841 25.262C124.561 25.318 124.239 25.346 123.875 25.346C123.567 25.346 123.329 25.304 123.161 25.22C122.825 25.164 122.601 25.136 122.489 25.136C122.405 25.136 122.363 25.192 122.363 25.304C121.663 27.376 121.089 29.266 120.641 30.974C119.661 33.942 119.003 35.874 118.667 36.77C118.331 37.694 118.093 38.226 117.953 38.366ZM123.203 22.868C123.231 22.98 123.385 23.036 123.665 23.036C124.253 23.036 125.149 22.77 126.353 22.238C127.585 21.678 128.551 21.104 129.251 20.516C129.839 19.816 130.287 19.242 130.595 18.794C130.931 18.318 131.099 17.954 131.099 17.702C131.099 17.59 131.043 17.478 130.931 17.366C130.651 16.946 130.147 16.736 129.419 16.736C128.495 16.736 127.389 17.086 126.101 17.786C125.541 17.982 125.135 18.248 124.883 18.584C124.659 18.892 124.449 19.284 124.253 19.76C124.057 20.236 123.903 20.6 123.791 20.852C123.343 21.916 123.147 22.588 123.203 22.868Z" fill="white"/>
<path d="M136.01 33.452C135.842 33.564 135.66 33.536 135.464 33.368C135.268 33.228 134.96 32.92 134.54 32.444C134.372 32.276 134.26 32.108 134.204 31.94C134.148 31.8 134.12 31.604 134.12 31.352L134.204 30.302C134.344 29.882 134.414 29.392 134.414 28.832C134.414 28.608 134.512 27.908 134.708 26.732C134.904 25.528 135.058 24.66 135.17 24.128L135.296 23.624C135.52 22.7 135.688 21.846 135.8 21.062C136.024 20.362 136.206 19.676 136.346 19.004C136.514 18.304 136.598 17.828 136.598 17.576C136.598 17.072 136.794 16.708 137.186 16.484C137.214 16.26 137.424 15.798 137.816 15.098C138.488 13.194 138.978 11.836 139.286 11.024C139.622 10.184 139.972 9.45602 140.336 8.84002C140.84 7.44002 141.246 6.55802 141.554 6.19402C141.75 5.71802 142.282 5.01802 143.15 4.09402C144.018 3.17002 144.788 2.42802 145.46 1.86802C146.076 1.53202 146.566 1.32202 146.93 1.23802C147.322 1.12602 147.798 1.07002 148.358 1.07002C148.834 1.07002 149.156 1.12602 149.324 1.23802C149.52 1.32202 149.828 1.56002 150.248 1.95202C150.612 2.37202 150.822 2.65202 150.878 2.79202C150.962 2.93202 151.004 3.19802 151.004 3.59002C150.892 4.17802 150.612 4.93402 150.164 5.85802C149.716 6.78202 149.38 7.25802 149.156 7.28602C149.072 7.31402 148.96 7.32802 148.82 7.32802C148.4 7.32802 148.19 6.97802 148.19 6.27802C148.19 6.11002 148.148 5.94202 148.064 5.77402C147.98 5.60602 147.924 5.49402 147.896 5.43802C147.896 5.01802 147.994 4.66802 148.19 4.38802C148.274 4.22002 148.316 4.06602 148.316 3.92602C148.316 3.78602 148.26 3.70202 148.148 3.67402C148.064 3.61802 147.924 3.61802 147.728 3.67402C147.476 3.81402 146.846 4.31802 145.838 5.18602C144.858 6.02602 144.368 6.53003 144.368 6.69802C144.34 6.75402 144.256 6.90802 144.116 7.16002C144.004 7.38402 143.822 7.65002 143.57 7.95802C143.066 8.65802 142.814 9.09202 142.814 9.26002C142.814 9.62402 142.73 9.80602 142.562 9.80602C142.534 9.86202 142.464 10.03 142.352 10.31C142.268 10.562 142.142 10.842 141.974 11.15C141.862 11.402 141.722 11.682 141.554 11.99C141.386 12.298 141.246 12.508 141.134 12.62H141.176C141.092 12.844 140.938 13.264 140.714 13.88C140.49 14.468 140.378 14.804 140.378 14.888C140.378 15 140.574 15.056 140.966 15.056C141.834 15.056 142.828 14.902 143.948 14.594C144.312 14.482 144.578 14.426 144.746 14.426C144.942 14.426 145.222 14.482 145.586 14.594C145.894 14.79 146.146 15.112 146.342 15.56C146.538 16.008 146.58 16.316 146.468 16.484C146.44 16.596 146.132 16.75 145.544 16.946C144.984 17.142 144.396 17.296 143.78 17.408C142.912 17.604 142.198 17.744 141.638 17.828C141.498 17.856 141.05 17.94 140.294 18.08C139.566 18.22 139.202 18.346 139.202 18.458C139.09 18.458 138.992 18.514 138.908 18.626C138.824 18.738 138.782 18.85 138.782 18.962C138.782 19.354 138.726 19.648 138.614 19.844C138.474 20.264 138.222 21.188 137.858 22.616C137.522 24.016 137.354 24.884 137.354 25.22C137.13 25.5 137.018 26.004 137.018 26.732C136.85 27.04 136.766 27.39 136.766 27.782C136.766 27.95 136.752 28.09 136.724 28.202C136.724 28.342 136.696 28.678 136.64 29.21C136.584 29.742 136.556 30.232 136.556 30.68L136.43 31.898C136.402 32.234 136.36 32.542 136.304 32.822C136.248 33.102 136.15 33.312 136.01 33.452ZM147.308 29.378C146.944 29.266 146.678 29.056 146.51 28.748C146.342 28.44 146.244 28.006 146.216 27.446C146.216 27.054 146.3 26.466 146.468 25.682C146.636 24.87 146.734 24.366 146.762 24.17L146.804 23.834C146.832 23.694 146.874 23.442 146.93 23.078C147.014 22.714 147.056 22.63 147.056 22.826L147.35 21.692C147.546 20.936 147.742 20.236 147.938 19.592C148.134 18.948 148.274 18.486 148.358 18.206L148.862 16.778C149.814 14.034 150.598 12.256 151.214 11.444C151.242 11.332 151.284 11.234 151.34 11.15C151.396 11.038 151.438 10.926 151.466 10.814C151.494 10.478 151.592 10.184 151.76 9.93202C152.012 9.51202 152.222 9.13402 152.39 8.79802L152.558 8.33602C153.006 7.38402 153.398 6.65602 153.734 6.15202C153.846 5.90002 154 5.60602 154.196 5.27003C154.42 4.93402 154.602 4.69602 154.742 4.55602L154.7 4.51402C154.84 4.29002 154.994 4.15002 155.162 4.09402C155.358 4.03802 155.61 4.01002 155.918 4.01002C156.282 4.01002 156.492 4.06602 156.548 4.17802C156.632 4.26202 156.674 4.51402 156.674 4.93402V5.31203C156.674 5.59202 156.646 5.80202 156.59 5.94202C156.562 6.08202 156.464 6.25002 156.296 6.44602H156.338C156.338 6.44602 156.31 6.51603 156.254 6.65602C156.198 6.79602 156.142 6.92202 156.086 7.03403C155.89 7.51002 155.75 7.79002 155.666 7.87402C155.498 8.07002 154.924 9.17602 153.944 11.192C152.992 13.18 152.348 14.594 152.012 15.434L151.802 16.064L151.718 16.316C151.41 16.988 151.242 17.352 151.214 17.408L150.5 19.844L150.29 20.726L149.912 21.65L149.66 22.448C149.604 22.56 149.562 22.7 149.534 22.868C149.506 23.036 149.45 23.162 149.366 23.246L149.324 23.456C148.988 24.996 148.764 26.48 148.652 27.908L148.61 28.076C148.554 28.552 148.456 28.902 148.316 29.126C148.176 29.35 147.98 29.462 147.728 29.462C147.672 29.462 147.532 29.434 147.308 29.378Z" fill="white"/>
<path d="M156.63 28.37C156.294 28.37 156.028 28.314 155.832 28.202C155.636 28.09 155.356 27.88 154.992 27.572C154.068 26.592 153.606 25.696 153.606 24.884C153.606 24.688 153.62 24.548 153.648 24.464C153.732 24.268 153.76 24.072 153.732 23.876C153.732 23.68 153.732 23.554 153.732 23.498C153.62 23.386 153.564 23.316 153.564 23.288C153.564 23.232 153.592 23.19 153.648 23.162C153.704 23.106 153.746 23.05 153.774 22.994C153.942 22.994 153.998 22.84 153.942 22.532C153.886 22.308 153.998 21.818 154.278 21.062C154.558 20.278 154.908 19.564 155.328 18.92C155.636 18.416 156.084 17.786 156.672 17.03C157.288 16.274 157.834 15.7 158.31 15.308C158.982 14.72 159.584 14.286 160.116 14.006C160.648 13.726 161.236 13.516 161.88 13.376C162.44 13.236 162.818 13.166 163.014 13.166C163.21 13.166 163.378 13.222 163.518 13.334C163.686 13.418 163.896 13.586 164.148 13.838C164.904 14.174 165.422 14.608 165.702 15.14C166.01 15.644 166.164 16.442 166.164 17.534C166.164 19.354 165.422 21.328 163.938 23.456C163.294 24.38 162.692 25.094 162.132 25.598C161.572 26.074 160.83 26.592 159.906 27.152C159.318 27.572 158.772 27.88 158.268 28.076C157.792 28.244 157.246 28.342 156.63 28.37ZM160.662 23.918C161.334 23.162 161.866 22.448 162.258 21.776C162.678 21.104 163.07 20.25 163.434 19.214C163.574 18.738 163.644 18.164 163.644 17.492C163.644 16.652 163.532 16.176 163.308 16.064C163.028 15.924 162.748 15.854 162.468 15.854C161.852 15.854 161.208 16.134 160.536 16.694C159.724 17.394 158.996 18.262 158.352 19.298C157.708 20.306 157.05 21.566 156.378 23.078C156.098 23.666 155.958 24.24 155.958 24.8C155.958 25.22 156.056 25.556 156.252 25.808C156.476 26.06 156.77 26.186 157.134 26.186C158.058 26.186 159.234 25.43 160.662 23.918Z" fill="white"/>
<path d="M170.733 27.11C170.145 27.11 169.641 26.648 169.221 25.724C168.829 24.8 168.633 23.722 168.633 22.49L168.675 21.734C168.675 20.726 168.745 19.886 168.885 19.214C169.025 18.542 169.109 18.122 169.137 17.954C169.193 17.814 169.249 17.576 169.305 17.24C169.361 16.876 169.473 16.372 169.641 15.728C169.865 14.748 170.089 14.146 170.313 13.922C170.537 13.698 170.803 13.586 171.111 13.586C171.307 13.586 171.489 13.642 171.657 13.754C171.825 13.838 171.965 13.964 172.077 14.132C172.245 14.3 172.329 14.706 172.329 15.35C172.329 15.826 172.287 16.288 172.203 16.736C172.119 17.184 172.007 17.506 171.867 17.702C171.783 17.87 171.657 18.682 171.489 20.138C171.377 21.202 171.293 21.888 171.237 22.196C171.209 22.308 171.195 22.476 171.195 22.7C171.195 23.344 171.391 23.666 171.783 23.666C172.427 23.666 173.337 22.812 174.513 21.104C175.297 19.984 175.843 19.116 176.151 18.5C176.487 17.856 176.823 17.044 177.159 16.064C177.299 15.644 177.425 15.28 177.537 14.972C177.677 14.664 177.803 14.468 177.915 14.384C178.055 14.272 178.251 14.216 178.503 14.216C178.783 14.216 179.119 14.342 179.511 14.594C179.847 14.93 180.015 15.322 180.015 15.77C180.015 16.246 179.847 16.82 179.511 17.492C179.175 18.164 178.867 19.102 178.587 20.306C178.307 21.482 178.167 22.406 178.167 23.078C178.167 23.582 178.223 23.904 178.335 24.044C178.475 24.156 178.685 24.212 178.965 24.212C179.749 24.212 180.687 23.652 181.779 22.532C182.283 22.028 182.941 21.146 183.753 19.886C184.593 18.598 185.013 17.842 185.013 17.618C185.013 17.45 185.139 17.212 185.391 16.904C185.531 16.708 185.657 16.54 185.769 16.4C185.909 16.26 186.105 16.12 186.357 15.98L186.693 15.896C186.917 15.896 187.183 16.05 187.491 16.358C187.603 16.47 187.673 16.652 187.701 16.904C187.729 17.128 187.743 17.394 187.743 17.702C187.603 18.206 187.365 18.864 187.029 19.676C186.693 20.46 186.427 20.964 186.231 21.188C185.699 21.608 185.251 22.126 184.887 22.742C184.215 23.554 183.683 24.128 183.291 24.464C182.927 24.772 182.689 24.982 182.577 25.094C182.017 25.654 181.401 26.088 180.729 26.396C180.085 26.704 179.469 26.858 178.881 26.858C178.293 26.858 177.817 26.718 177.453 26.438C176.585 25.99 176.151 25.234 176.151 24.17C176.151 23.974 176.123 23.792 176.067 23.624C176.011 23.456 175.969 23.344 175.941 23.288C175.521 23.288 175.185 23.512 174.933 23.96C174.541 24.66 173.869 25.36 172.917 26.06C171.965 26.76 171.237 27.11 170.733 27.11Z" fill="white"/>
</svg>
