<svg fill="none" height="32" viewBox="0 0 150 32" width="150" xmlns="http://www.w3.org/2000/svg"><g fill="#000"><path d="m3.69862 27.6795v-8.212h9.82258v-9.0615h10.1499v5.7578c0 6.36-5.9613 11.5157-13.315 11.5157z"/><path d="m19.9725.169814v7.907856h-9.8225v8.72593h-10.1500006v-5.5446c0-6.12439 5.9613406-11.089186 13.3150006-11.089186z"/><path d="m44.7602 18.9531c-.0917-6.3406-9.3206-4.4201-9.3206-7.1331 0-.8231.6723-1.3108 1.8947-1.3108 1.4668 0 2.353.7621 2.5058 1.9204h4.8284c-.3362-3.35313-2.7809-5.7918-7.1815-5.7918-4.4616 0-6.9369 2.37771-6.9369 5.2736 0 6.2491 9.29 4.2677 9.29 7.0112 0 .7621-.7028 1.3718-2.0475 1.3718-1.4362 0-2.5058-.7926-2.6281-1.9815h-5.1645c.2445 3.2923 3.3004 5.8224 7.8538 5.8224 4.2783 0 6.9064-2.2253 6.9064-5.1822z"/><path d="m46.796 17.9776c0 4.4201 2.4753 5.9138 6.0202 5.9138h2.6586v-4.4201h-1.8641c-1.1613 0-1.5891-.4268-1.5891-1.4327v-6.8283h3.4227v-4.32863h-3.4227v-4.14575h-5.2256v4.14575h-2.0781v4.32863h2.0781z"/><path d="m63.9169 10.814c1.7418 0 3.2087 1.0669 3.2087 2.9264h-6.5397c.3056-1.8899 1.6196-2.9264 3.331-2.9264zm8.1593 7.438h-5.5618c-.4278.9145-1.2529 1.6461-2.7198 1.6461-1.6807 0-3.0559-1.0365-3.2393-3.2617h11.8265c.0611-.5183.0917-1.0365.0917-1.5242 0-5.18219-3.5143-8.4744-8.4955-8.4744-5.0729 0-8.6178 3.35318-8.6178 8.7487 0 5.3956 3.606 8.7488 8.6178 8.7488 4.2477 0 7.2731-2.5606 8.0982-5.8833z"/><path d="m78.4696 9.28986v-2.40819h-5.2257v25.11833h5.2257v-10.4863c.9473 1.4327 2.7503 2.6216 5.2562 2.6216 4.1866 0 7.5176-3.4142 7.5176-8.7792 0-5.36513-3.331-8.7183-7.5176-8.7183-2.5059 0-4.3089 1.15837-5.2562 2.65206zm7.4565 6.06624c0 2.713-1.7725 4.2372-3.7589 4.2372-1.9558 0-3.7282-1.4937-3.7282-4.2068 0-2.713 1.7724-4.2067 3.7282-4.2067 1.9864 0 3.7589 1.4632 3.7589 4.1763z"/><path d="m92.518 23.8914h5.2257v-12.6811h2.8113v-4.32863h-2.8113v-.15242c0-1.79852.7029-2.40819 2.7193-2.28625v-4.4201007c-5.1946-.2743513-7.945 1.9204507-7.945 6.3710307v.48774h-1.8946v4.32863h1.8946z"/><path d="m101.024 23.8914h5.226v-22.55771h-5.226z"/><path d="m124.736 15.3865c0-5.39552-3.85-8.7487-8.862-8.7487-4.981 0-8.862 3.35318-8.862 8.7487 0 5.3956 3.789 8.7488 8.801 8.7488 5.011 0 8.923-3.3532 8.923-8.7488zm-12.407 0c0-2.8959 1.65-4.2372 3.545-4.2372 1.833 0 3.545 1.3413 3.545 4.2372 0 2.8655-1.742 4.2372-3.606 4.2372-1.895 0-3.484-1.3717-3.484-4.2372z"/><path d="m128.395 23.8914h5.745l2.781-11.035 2.689 11.035h5.776l4.614-17.00973h-4.92l-2.384 12.10193-2.903-12.10193h-5.531l-2.873 12.16283-2.414-12.16283h-5.226z"/></g></svg>