<svg width="150" height="32" viewBox="0 0 150 32" fill="none" xmlns="http://www.w3.org/2000/svg">
<g clip-path="url(#clip0_3860_992)">
<path d="M3.69922 27.6793V19.4673H13.5218V10.4058H23.6717V16.1636C23.6717 22.5236 17.7104 27.6793 10.3567 27.6793H3.69922Z" fill="white"/>
<path d="M19.9725 0.169922V8.07778H10.15V16.8037H0V11.2591C0 5.13472 5.96134 0.169922 13.315 0.169922H19.9725Z" fill="white"/>
<path d="M44.7602 18.953C44.6685 12.6124 35.4396 14.5329 35.4396 11.8199C35.4396 10.9968 36.1119 10.5091 37.3343 10.5091C38.8011 10.5091 39.6873 11.2712 39.8401 12.4295H44.6685C44.3323 9.07636 41.8876 6.6377 37.487 6.6377C33.0254 6.6377 30.5501 9.0154 30.5501 11.9113C30.5501 18.1604 39.8401 16.179 39.8401 18.9225C39.8401 19.6846 39.1373 20.2943 37.7926 20.2943C36.3564 20.2943 35.2868 19.5017 35.1645 18.3128H30C30.2445 21.6051 33.3004 24.1352 37.8538 24.1352C42.1321 24.1352 44.7602 21.9099 44.7602 18.953V18.953Z" fill="white"/>
<path d="M46.7969 17.9775C46.7969 22.3976 49.2722 23.8913 52.8171 23.8913H55.4757V19.4712H53.6115C52.4502 19.4712 52.0224 19.0444 52.0224 18.0385V11.2102H55.4452V6.88159H52.0224V2.73584H46.7969V6.88159H44.7188V11.2102H46.7969V17.9775Z" fill="white"/>
<path d="M63.9161 10.8139C65.6579 10.8139 67.1248 11.8808 67.1248 13.7403H60.5851C60.8907 11.8504 62.2047 10.8139 63.9161 10.8139ZM72.0754 18.2519H66.5136C66.0858 19.1664 65.2607 19.898 63.7938 19.898C62.1131 19.898 60.7379 18.8615 60.5545 16.6363H72.381C72.4421 16.118 72.4727 15.5998 72.4727 15.1121C72.4727 9.9299 68.9584 6.6377 63.9772 6.6377C58.9043 6.6377 55.3594 9.99088 55.3594 15.3864C55.3594 20.782 58.9654 24.1352 63.9772 24.1352C68.2249 24.1352 71.2503 21.5746 72.0754 18.2519V18.2519Z" fill="white"/>
<path d="M78.4679 9.28975V6.88157H73.2422V31.9999H78.4679V21.5136C79.4152 22.9463 81.2182 24.1352 83.7241 24.1352C87.9107 24.1352 91.2417 20.721 91.2417 15.356C91.2417 9.99087 87.9107 6.6377 83.7241 6.6377C81.2182 6.6377 79.4152 7.79606 78.4679 9.28975V9.28975ZM85.9244 15.356C85.9244 18.069 84.1519 19.5932 82.1655 19.5932C80.2097 19.5932 78.4373 18.0995 78.4373 15.3864C78.4373 12.6734 80.2097 11.1797 82.1655 11.1797C84.1519 11.1797 85.9244 12.6429 85.9244 15.356Z" fill="white"/>
<path d="M92.5196 23.8914H97.7453V11.2103H100.557V6.88167H97.7453V6.72925C97.7453 4.93073 98.4482 4.32106 100.465 4.443V0.0228994C95.27 -0.251452 92.5196 1.94335 92.5196 6.39393V6.88167H90.625V11.2103H92.5196V23.8914Z" fill="white"/>
<path d="M101.023 23.8912H106.249V1.3335H101.023V23.8912Z" fill="white"/>
<path d="M124.736 15.3864C124.736 9.99088 120.886 6.6377 115.874 6.6377C110.893 6.6377 107.012 9.99088 107.012 15.3864C107.012 20.782 110.801 24.1352 115.813 24.1352C120.824 24.1352 124.736 20.782 124.736 15.3864V15.3864ZM112.329 15.3864C112.329 12.4905 113.979 11.1492 115.874 11.1492C117.707 11.1492 119.419 12.4905 119.419 15.3864C119.419 18.2519 117.677 19.6236 115.813 19.6236C113.918 19.6236 112.329 18.2519 112.329 15.3864V15.3864Z" fill="white"/>
<path d="M128.396 23.8916H134.141L136.922 12.8566L139.611 23.8916H145.387L150.001 6.88184H145.081L142.697 18.9838L139.794 6.88184H134.263L131.39 19.0447L128.976 6.88184H123.75L128.396 23.8916Z" fill="white"/>
</g>
<defs>
<clipPath id="clip0_3860_992">
<rect width="150" height="32" fill="white"/>
</clipPath>
</defs>
</svg>
